<svg width="40" height="40" viewBox="0 0 40 40" fill="none" xmlns="http://www.w3.org/2000/svg">
<rect x="1" y="1" width="38" height="38" rx="13" stroke="white" stroke-width="2"/>
<path d="M25.6921 19.1235C25.5887 19.074 25.4837 19.0263 25.3774 18.9806C25.1921 15.5673 23.327 13.6131 20.1952 13.5931C20.181 13.593 20.1669 13.593 20.1528 13.593C18.2795 13.593 16.7216 14.3926 15.7628 15.8476L17.4851 17.0291C18.2014 15.9423 19.3257 15.7106 20.1536 15.7106C20.1631 15.7106 20.1727 15.7106 20.1822 15.7107C21.2134 15.7173 21.9915 16.0171 22.4951 16.6018C22.8616 17.0274 23.1067 17.6156 23.2281 18.358C22.3139 18.2026 21.3251 18.1548 20.2681 18.2154C17.2906 18.3869 15.3764 20.1235 15.505 22.5365C15.5702 23.7605 16.18 24.8135 17.2219 25.5014C18.1028 26.0829 19.2374 26.3673 20.4165 26.3029C21.9738 26.2175 23.1954 25.6234 24.0476 24.537C24.6949 23.712 25.1042 22.6429 25.285 21.2957C26.0271 21.7436 26.5771 22.333 26.8809 23.0415C27.3974 24.2459 27.4275 26.225 25.8126 27.8385C24.3978 29.252 22.697 29.8635 20.1267 29.8824C17.2755 29.8612 15.1192 28.9469 13.7173 27.1646C12.4044 25.4958 11.726 23.0852 11.7006 20C11.726 16.9147 12.4044 14.5042 13.7173 12.8353C15.1192 11.0531 17.2755 10.1388 20.1266 10.1176C22.9985 10.1389 25.1924 11.0577 26.648 12.8485C27.3618 13.7267 27.8999 14.8311 28.2546 16.1188L30.273 15.5803C29.843 13.9953 29.1664 12.6295 28.2456 11.4968C26.3795 9.20084 23.6503 8.02439 20.1337 8H20.1196C16.6102 8.02431 13.9115 9.20522 12.0985 11.5099C10.4852 13.5608 9.65305 16.4145 9.62509 19.9916L9.625 20L9.62509 20.0084C9.65305 23.5855 10.4852 26.4393 12.0985 28.4901C13.9115 30.7948 16.6102 31.9757 20.1196 32H20.1337C23.2538 31.9784 25.453 31.1615 27.2647 29.3514C29.6351 26.9832 29.5637 24.0149 28.7825 22.1926C28.222 20.8859 27.1534 19.8245 25.6921 19.1235ZM20.3051 24.1884C19.0001 24.2619 17.6443 23.6761 17.5774 22.4215C17.5279 21.4913 18.2395 20.4532 20.3851 20.3296C20.6309 20.3154 20.872 20.3085 21.1089 20.3085C21.8883 20.3085 22.6174 20.3842 23.2802 20.5291C23.033 23.6169 21.5828 24.1182 20.3051 24.1884Z" fill="white"/>
</svg>
